# MagicaVoxel @ Ephtracy

# group
g Level1-4-12

# material
mtllib Level1-4-12.mtl
usemtl palette

# normals
vn -1 0 0
vn 1 0 0
vn 0 0 1
vn 0 0 -1
vn 0 -1 0
vn 0 1 0

# texcoords
vt 0.873047 0.5
vt 0.935547 0.5
vt 0.943359 0.5
vt 0.966797 0.5
vt 0.978516 0.5
vt 0.982422 0.5
vt 0.986328 0.5

# verts
v -5 0 9
v -5 0 -9
v -5 25 9
v -5 25 8
v -5 25 -8
v -5 25 -9
v -5 27 8
v -5 27 7
v -5 27 -7
v -5 27 -8
v -5 29 7
v -5 29 5
v -5 29 -5
v -5 29 -7
v -5 30 5
v -5 30 3
v -5 30 -3
v -5 30 -5
v -5 31 3
v -5 31 -3
v -3 21 4
v -3 21 3
v -3 21 2
v -3 21 1
v -3 21 -0
v -3 21 -1
v -3 21 -2
v -3 21 -3
v -3 21 -4
v -3 21 -5
v -3 22 4
v -3 22 3
v -3 22 2
v -3 22 1
v -3 22 -0
v -3 22 -1
v -3 22 -2
v -3 22 -3
v -3 22 -4
v -3 22 -5
v -2 22 4
v -2 22 3
v -2 22 2
v -2 22 1
v -2 22 -0
v -2 22 -1
v -2 22 -2
v -2 22 -3
v -2 22 -4
v -2 22 -5
v -2 23 4
v -2 23 3
v -2 23 2
v -2 23 1
v -2 23 -0
v -2 23 -1
v -2 23 -2
v -2 23 -3
v -2 23 -4
v -2 23 -5
v 3 0 10
v 3 0 9
v 3 0 -9
v 3 0 -10
v 3 1 9
v 3 1 -9
v 3 5 10
v 3 5 9
v 3 5 -9
v 3 5 -10
v 3 21 6
v 3 21 -6
v 3 25 6
v 3 25 -6
v -4 21 6
v -4 21 -6
v -4 25 6
v -4 25 -6
v 0 22 4
v 0 22 3
v 0 22 2
v 0 22 1
v 0 22 -0
v 0 22 -1
v 0 22 -2
v 0 22 -3
v 0 22 -4
v 0 22 -5
v 0 23 4
v 0 23 3
v 0 23 2
v 0 23 1
v 0 23 -0
v 0 23 -1
v 0 23 -2
v 0 23 -3
v 0 23 -4
v 0 23 -5
v 1 21 4
v 1 21 3
v 1 21 2
v 1 21 1
v 1 21 -0
v 1 21 -1
v 1 21 -2
v 1 21 -3
v 1 21 -4
v 1 21 -5
v 1 22 4
v 1 22 3
v 1 22 2
v 1 22 1
v 1 22 -0
v 1 22 -1
v 1 22 -2
v 1 22 -3
v 1 22 -4
v 1 22 -5
v 3 15 5
v 3 15 -5
v 3 16 5
v 3 16 -5
v 4 0 10
v 4 0 9
v 4 0 6
v 4 0 -6
v 4 0 -9
v 4 0 -10
v 4 1 6
v 4 1 -6
v 4 3 8
v 4 3 7
v 4 3 6
v 4 3 -6
v 4 3 -7
v 4 3 -8
v 4 4 9
v 4 4 8
v 4 4 -8
v 4 4 -9
v 4 5 10
v 4 5 9
v 4 5 -9
v 4 5 -10
v 4 15 5
v 4 15 -5
v 4 16 5
v 4 16 -5
v 4 17 5
v 4 17 4
v 4 17 3
v 4 17 2
v 4 17 -2
v 4 17 -3
v 4 17 -4
v 4 17 -5
v 4 18 6
v 4 18 5
v 4 18 4
v 4 18 3
v 4 18 2
v 4 18 -2
v 4 18 -3
v 4 18 -4
v 4 18 -5
v 4 18 -6
v 4 21 6
v 4 21 -6
v 4 25 9
v 4 25 8
v 4 25 7
v 4 25 6
v 4 25 -6
v 4 25 -7
v 4 25 -8
v 4 25 -9
v 4 26 7
v 4 26 6
v 4 26 5
v 4 26 -5
v 4 26 -6
v 4 26 -7
v 4 27 8
v 4 27 7
v 4 27 6
v 4 27 5
v 4 27 4
v 4 27 -4
v 4 27 -5
v 4 27 -6
v 4 27 -7
v 4 27 -8
v 4 28 5
v 4 28 4
v 4 28 3
v 4 28 -3
v 4 28 -4
v 4 28 -5
v 4 29 7
v 4 29 5
v 4 29 4
v 4 29 3
v 4 29 -3
v 4 29 -4
v 4 29 -5
v 4 29 -7
v 4 30 5
v 4 30 3
v 4 30 -3
v 4 30 -5
v 4 31 3
v 4 31 -3
v 5 0 9
v 5 0 6
v 5 0 -6
v 5 0 -9
v 5 3 8
v 5 3 6
v 5 3 -6
v 5 3 -8
v 5 4 9
v 5 4 8
v 5 4 -8
v 5 4 -9
v 3 0 10
v 3 5 10
v 4 0 10
v 4 5 10
v -5 0 9
v -5 25 9
v -4 1 9
v -4 25 9
v 3 0 9
v 3 1 9
v 3 5 9
v 3 25 9
v 4 0 9
v 4 4 9
v 4 5 9
v 4 25 9
v 5 0 9
v 5 4 9
v -5 25 8
v -5 27 8
v -4 25 8
v -4 27 8
v 3 25 8
v 3 27 8
v 4 25 8
v 4 27 8
v -5 27 7
v -5 29 7
v -4 27 7
v -4 29 7
v 3 27 7
v 3 29 7
v 4 27 7
v 4 29 7
v -5 29 5
v -5 30 5
v -4 29 5
v -4 30 5
v 3 29 5
v 3 30 5
v 4 29 5
v 4 30 5
v -3 21 4
v -3 22 4
v -2 22 4
v -2 23 4
v 0 22 4
v 0 23 4
v 1 21 4
v 1 22 4
v -5 30 3
v -5 31 3
v -4 30 3
v -4 31 3
v 3 30 3
v 3 31 3
v 4 30 3
v 4 31 3
v -3 21 2
v -3 22 2
v -2 22 2
v -2 23 2
v 0 22 2
v 0 23 2
v 1 21 2
v 1 22 2
v -3 21 -0
v -3 22 -0
v -2 22 -0
v -2 23 -0
v 0 22 -0
v 0 23 -0
v 1 21 -0
v 1 22 -0
v -3 21 -2
v -3 22 -2
v -2 22 -2
v -2 23 -2
v 0 22 -2
v 0 23 -2
v 1 21 -2
v 1 22 -2
v -3 21 -4
v -3 22 -4
v -2 22 -4
v -2 23 -4
v 0 22 -4
v 0 23 -4
v 1 21 -4
v 1 22 -4
v 3 15 -5
v 3 16 -5
v 4 15 -5
v 4 16 -5
v -4 21 -6
v -4 25 -6
v 3 21 -6
v 3 25 -6
v 4 0 -6
v 4 1 -6
v 4 3 -6
v 5 0 -6
v 5 3 -6
v 4 3 -8
v 4 4 -8
v 5 3 -8
v 5 4 -8
v 4 3 8
v 4 4 8
v 5 3 8
v 5 4 8
v -4 21 6
v -4 25 6
v 3 21 6
v 3 25 6
v 4 0 6
v 4 1 6
v 4 3 6
v 5 0 6
v 5 3 6
v 3 15 5
v 3 16 5
v 4 15 5
v 4 16 5
v -3 21 3
v -3 22 3
v -2 22 3
v -2 23 3
v 0 22 3
v 0 23 3
v 1 21 3
v 1 22 3
v -3 21 1
v -3 22 1
v -2 22 1
v -2 23 1
v 0 22 1
v 0 23 1
v 1 21 1
v 1 22 1
v -3 21 -1
v -3 22 -1
v -2 22 -1
v -2 23 -1
v 0 22 -1
v 0 23 -1
v 1 21 -1
v 1 22 -1
v -5 30 -3
v -5 31 -3
v -4 30 -3
v -4 31 -3
v -3 21 -3
v -3 22 -3
v -2 22 -3
v -2 23 -3
v 0 22 -3
v 0 23 -3
v 1 21 -3
v 1 22 -3
v 3 30 -3
v 3 31 -3
v 4 30 -3
v 4 31 -3
v -5 29 -5
v -5 30 -5
v -4 29 -5
v -4 30 -5
v -3 21 -5
v -3 22 -5
v -2 22 -5
v -2 23 -5
v 0 22 -5
v 0 23 -5
v 1 21 -5
v 1 22 -5
v 3 29 -5
v 3 30 -5
v 4 29 -5
v 4 30 -5
v -5 27 -7
v -5 29 -7
v -4 27 -7
v -4 29 -7
v 3 27 -7
v 3 29 -7
v 4 27 -7
v 4 29 -7
v -5 25 -8
v -5 27 -8
v -4 25 -8
v -4 27 -8
v 3 25 -8
v 3 27 -8
v 4 25 -8
v 4 27 -8
v -5 0 -9
v -5 25 -9
v -4 1 -9
v -4 25 -9
v 3 0 -9
v 3 1 -9
v 3 5 -9
v 3 25 -9
v 4 0 -9
v 4 4 -9
v 4 5 -9
v 4 25 -9
v 5 0 -9
v 5 4 -9
v 3 0 -10
v 3 5 -10
v 4 0 -10
v 4 5 -10
v 3 0 10
v 4 0 10
v -5 0 9
v 3 0 9
v 4 0 9
v 5 0 9
v -4 0 8
v 3 0 8
v 4 0 6
v 5 0 6
v 4 0 -6
v 5 0 -6
v -4 0 -8
v 3 0 -8
v -5 0 -9
v 3 0 -9
v 4 0 -9
v 5 0 -9
v 3 0 -10
v 4 0 -10
v 3 16 5
v 4 16 5
v 3 16 -5
v 4 16 -5
v -4 25 6
v 3 25 6
v -4 25 -6
v 3 25 -6
v 4 3 8
v 5 3 8
v 4 3 7
v 4 3 6
v 5 3 6
v 4 3 -6
v 5 3 -6
v 4 3 -7
v 4 3 -8
v 5 3 -8
v 4 4 9
v 5 4 9
v 4 4 8
v 5 4 8
v 4 4 -8
v 5 4 -8
v 4 4 -9
v 5 4 -9
v 3 5 10
v 4 5 10
v 3 5 9
v 4 5 9
v 3 5 -9
v 4 5 -9
v 3 5 -10
v 4 5 -10
v 3 15 5
v 4 15 5
v 3 15 -5
v 4 15 -5
v -4 21 6
v 3 21 6
v -3 21 4
v 1 21 4
v -3 21 3
v 1 21 3
v -3 21 2
v 1 21 2
v -3 21 1
v 1 21 1
v -3 21 -0
v 1 21 -0
v -3 21 -1
v 1 21 -1
v -3 21 -2
v 1 21 -2
v -3 21 -3
v 1 21 -3
v -3 21 -4
v 1 21 -4
v -3 21 -5
v 1 21 -5
v -4 21 -6
v 3 21 -6
v -3 22 4
v -2 22 4
v 0 22 4
v 1 22 4
v -3 22 3
v -2 22 3
v 0 22 3
v 1 22 3
v -3 22 2
v -2 22 2
v 0 22 2
v 1 22 2
v -3 22 1
v -2 22 1
v 0 22 1
v 1 22 1
v -3 22 -0
v -2 22 -0
v 0 22 -0
v 1 22 -0
v -3 22 -1
v -2 22 -1
v 0 22 -1
v 1 22 -1
v -3 22 -2
v -2 22 -2
v 0 22 -2
v 1 22 -2
v -3 22 -3
v -2 22 -3
v 0 22 -3
v 1 22 -3
v -3 22 -4
v -2 22 -4
v 0 22 -4
v 1 22 -4
v -3 22 -5
v -2 22 -5
v 0 22 -5
v 1 22 -5
v -2 23 4
v 0 23 4
v -2 23 3
v 0 23 3
v -2 23 2
v 0 23 2
v -2 23 1
v 0 23 1
v -2 23 -0
v 0 23 -0
v -2 23 -1
v 0 23 -1
v -2 23 -2
v 0 23 -2
v -2 23 -3
v 0 23 -3
v -2 23 -4
v 0 23 -4
v -2 23 -5
v 0 23 -5
v -5 25 9
v -4 25 9
v 3 25 9
v 4 25 9
v -5 25 8
v -4 25 8
v 3 25 8
v 4 25 8
v -5 25 -8
v -4 25 -8
v 3 25 -8
v 4 25 -8
v -5 25 -9
v -4 25 -9
v 3 25 -9
v 4 25 -9
v -5 27 8
v -4 27 8
v 3 27 8
v 4 27 8
v -5 27 7
v -4 27 7
v 3 27 7
v 4 27 7
v -5 27 -7
v -4 27 -7
v 3 27 -7
v 4 27 -7
v -5 27 -8
v -4 27 -8
v 3 27 -8
v 4 27 -8
v -5 29 7
v -4 29 7
v 3 29 7
v 4 29 7
v -5 29 5
v -4 29 5
v 3 29 5
v 4 29 5
v -5 29 -5
v -4 29 -5
v 3 29 -5
v 4 29 -5
v -5 29 -7
v -4 29 -7
v 3 29 -7
v 4 29 -7
v -5 30 5
v -4 30 5
v 3 30 5
v 4 30 5
v -5 30 3
v -4 30 3
v 3 30 3
v 4 30 3
v -5 30 -3
v -4 30 -3
v 3 30 -3
v 4 30 -3
v -5 30 -5
v -4 30 -5
v 3 30 -5
v 4 30 -5
v -5 31 3
v -4 31 3
v 3 31 3
v 4 31 3
v -5 31 -3
v -4 31 -3
v 3 31 -3
v 4 31 -3

# faces
f 3/2/1 2/2/1 1/2/1
f 4/2/1 2/2/1 3/2/1
f 5/2/1 2/2/1 4/2/1
f 6/2/1 2/2/1 5/2/1
f 7/2/1 5/2/1 4/2/1
f 8/2/1 5/2/1 7/2/1
f 9/2/1 5/2/1 8/2/1
f 10/2/1 5/2/1 9/2/1
f 11/2/1 9/2/1 8/2/1
f 12/2/1 9/2/1 11/2/1
f 13/2/1 9/2/1 12/2/1
f 14/2/1 9/2/1 13/2/1
f 15/2/1 13/2/1 12/2/1
f 16/2/1 13/2/1 15/2/1
f 17/2/1 13/2/1 16/2/1
f 18/2/1 13/2/1 17/2/1
f 19/2/1 17/2/1 16/2/1
f 20/2/1 17/2/1 19/2/1
f 31/4/1 22/4/1 21/4/1
f 32/4/1 22/4/1 31/4/1
f 33/4/1 24/4/1 23/4/1
f 34/4/1 24/4/1 33/4/1
f 35/4/1 26/4/1 25/4/1
f 36/4/1 26/4/1 35/4/1
f 37/4/1 28/4/1 27/4/1
f 38/4/1 28/4/1 37/4/1
f 39/4/1 30/4/1 29/4/1
f 40/4/1 30/4/1 39/4/1
f 51/4/1 42/4/1 41/4/1
f 52/4/1 42/4/1 51/4/1
f 53/4/1 44/4/1 43/4/1
f 54/4/1 44/4/1 53/4/1
f 55/4/1 46/4/1 45/4/1
f 56/4/1 46/4/1 55/4/1
f 57/4/1 48/4/1 47/4/1
f 58/4/1 48/4/1 57/4/1
f 59/4/1 50/4/1 49/4/1
f 60/4/1 50/4/1 59/4/1
f 65/4/1 62/4/1 61/4/1
f 66/4/1 64/4/1 63/4/1
f 67/4/1 65/4/1 61/4/1
f 68/4/1 65/4/1 67/4/1
f 69/4/1 64/4/1 66/4/1
f 70/4/1 64/4/1 69/4/1
f 73/1/1 72/1/1 71/1/1
f 74/1/1 72/1/1 73/1/1
f 75/2/2 76/2/2 77/2/2
f 77/2/2 76/2/2 78/2/2
f 79/4/2 80/4/2 89/4/2
f 89/4/2 80/4/2 90/4/2
f 81/4/2 82/4/2 91/4/2
f 91/4/2 82/4/2 92/4/2
f 83/4/2 84/4/2 93/4/2
f 93/4/2 84/4/2 94/4/2
f 85/4/2 86/4/2 95/4/2
f 95/4/2 86/4/2 96/4/2
f 87/4/2 88/4/2 97/4/2
f 97/4/2 88/4/2 98/4/2
f 99/4/2 100/4/2 109/4/2
f 109/4/2 100/4/2 110/4/2
f 101/4/2 102/4/2 111/4/2
f 111/4/2 102/4/2 112/4/2
f 103/4/2 104/4/2 113/4/2
f 113/4/2 104/4/2 114/4/2
f 105/4/2 106/4/2 115/4/2
f 115/4/2 106/4/2 116/4/2
f 107/4/2 108/4/2 117/4/2
f 117/4/2 108/4/2 118/4/2
f 119/3/2 120/3/2 121/3/2
f 121/3/2 120/3/2 122/3/2
f 125/2/2 126/2/2 129/2/2
f 129/2/2 126/2/2 130/2/2
f 129/7/2 130/7/2 133/7/2
f 133/7/2 130/7/2 134/7/2
f 123/4/2 124/4/2 137/4/2
f 131/5/2 132/5/2 138/5/2
f 135/5/2 136/5/2 139/5/2
f 127/4/2 128/4/2 140/4/2
f 123/4/2 137/4/2 141/4/2
f 137/7/2 138/7/2 142/7/2
f 141/4/2 137/4/2 142/4/2
f 139/7/2 140/7/2 143/7/2
f 140/4/2 128/4/2 143/4/2
f 143/4/2 128/4/2 144/4/2
f 133/4/2 134/4/2 145/4/2
f 145/4/2 134/4/2 146/4/2
f 133/4/2 145/4/2 147/4/2
f 146/4/2 134/4/2 148/4/2
f 133/4/2 147/4/2 149/4/2
f 147/4/2 148/4/2 149/4/2
f 149/4/2 148/4/2 150/4/2
f 150/4/2 148/4/2 151/4/2
f 151/4/2 148/4/2 152/4/2
f 152/4/2 148/4/2 153/4/2
f 153/4/2 148/4/2 154/4/2
f 154/4/2 148/4/2 155/4/2
f 148/4/2 134/4/2 156/4/2
f 155/4/2 148/4/2 156/4/2
f 132/7/2 133/7/2 157/7/2
f 133/4/2 149/4/2 157/4/2
f 149/6/2 150/6/2 158/6/2
f 157/4/2 149/4/2 158/4/2
f 150/4/2 151/4/2 159/4/2
f 158/6/2 150/6/2 159/6/2
f 151/6/2 152/6/2 160/6/2
f 159/4/2 151/4/2 160/4/2
f 152/4/2 153/4/2 161/4/2
f 160/6/2 152/6/2 161/6/2
f 153/6/2 154/6/2 162/6/2
f 161/4/2 153/4/2 162/4/2
f 154/4/2 155/4/2 163/4/2
f 162/6/2 154/6/2 163/6/2
f 155/6/2 156/6/2 164/6/2
f 163/4/2 155/4/2 164/4/2
f 156/4/2 134/4/2 165/4/2
f 164/6/2 156/6/2 165/6/2
f 134/7/2 135/7/2 166/7/2
f 165/4/2 134/4/2 166/4/2
f 163/7/2 164/7/2 167/7/2
f 164/7/2 165/7/2 167/7/2
f 165/7/2 166/7/2 167/7/2
f 160/7/2 161/7/2 167/7/2
f 159/7/2 160/7/2 167/7/2
f 158/7/2 159/7/2 167/7/2
f 157/7/2 158/7/2 167/7/2
f 132/7/2 157/7/2 167/7/2
f 162/7/2 163/7/2 167/7/2
f 161/7/2 162/7/2 167/7/2
f 166/7/2 135/7/2 168/7/2
f 167/7/2 166/7/2 168/7/2
f 142/7/2 138/7/2 169/7/2
f 138/5/2 132/5/2 170/5/2
f 169/7/2 138/7/2 170/7/2
f 132/7/2 167/7/2 171/7/2
f 170/5/2 132/5/2 171/5/2
f 167/1/2 168/1/2 172/1/2
f 171/7/2 167/7/2 172/7/2
f 168/7/2 135/7/2 173/7/2
f 172/1/2 168/1/2 173/1/2
f 135/5/2 139/5/2 174/5/2
f 173/7/2 135/7/2 174/7/2
f 139/7/2 143/7/2 175/7/2
f 174/5/2 139/5/2 175/5/2
f 175/7/2 143/7/2 176/7/2
f 171/5/2 172/5/2 177/5/2
f 170/7/2 171/7/2 177/7/2
f 172/7/2 173/7/2 178/7/2
f 177/5/2 172/5/2 178/5/2
f 178/7/2 173/7/2 179/7/2
f 179/7/2 173/7/2 180/7/2
f 173/5/2 174/5/2 181/5/2
f 180/7/2 173/7/2 181/7/2
f 174/7/2 175/7/2 182/7/2
f 181/5/2 174/5/2 182/5/2
f 170/7/2 177/7/2 183/7/2
f 177/7/2 178/7/2 183/7/2
f 183/7/2 178/7/2 184/7/2
f 178/5/2 179/5/2 185/5/2
f 184/7/2 178/7/2 185/7/2
f 179/7/2 180/7/2 186/7/2
f 185/5/2 179/5/2 186/5/2
f 186/7/2 180/7/2 187/7/2
f 187/7/2 180/7/2 188/7/2
f 180/5/2 181/5/2 189/5/2
f 188/7/2 180/7/2 189/7/2
f 181/7/2 182/7/2 190/7/2
f 189/5/2 181/5/2 190/5/2
f 182/7/2 175/7/2 191/7/2
f 190/7/2 182/7/2 191/7/2
f 191/7/2 175/7/2 192/7/2
f 184/7/2 185/7/2 193/7/2
f 185/7/2 186/7/2 193/7/2
f 186/5/2 187/5/2 193/5/2
f 187/7/2 188/7/2 194/7/2
f 193/5/2 187/5/2 194/5/2
f 194/7/2 188/7/2 195/7/2
f 195/7/2 188/7/2 196/7/2
f 188/5/2 189/5/2 197/5/2
f 196/7/2 188/7/2 197/7/2
f 189/7/2 190/7/2 198/7/2
f 197/5/2 189/5/2 198/5/2
f 190/7/2 191/7/2 198/7/2
f 184/7/2 193/7/2 199/7/2
f 193/7/2 194/7/2 199/7/2
f 199/7/2 194/7/2 200/7/2
f 194/5/2 195/5/2 201/5/2
f 200/7/2 194/7/2 201/7/2
f 195/7/2 196/7/2 202/7/2
f 201/5/2 195/5/2 202/5/2
f 196/5/2 197/5/2 203/5/2
f 202/7/2 196/7/2 203/7/2
f 197/7/2 198/7/2 204/7/2
f 203/5/2 197/5/2 204/5/2
f 198/7/2 191/7/2 205/7/2
f 204/7/2 198/7/2 205/7/2
f 205/7/2 191/7/2 206/7/2
f 201/7/2 202/7/2 207/7/2
f 200/7/2 201/7/2 207/7/2
f 202/5/2 203/5/2 208/5/2
f 207/7/2 202/7/2 208/7/2
f 203/7/2 204/7/2 209/7/2
f 208/5/2 203/5/2 209/5/2
f 204/7/2 205/7/2 209/7/2
f 209/7/2 205/7/2 210/7/2
f 208/7/2 209/7/2 211/7/2
f 211/7/2 209/7/2 212/7/2
f 213/4/2 214/4/2 217/4/2
f 217/4/2 214/4/2 218/4/2
f 215/4/2 216/4/2 219/4/2
f 219/4/2 216/4/2 220/4/2
f 213/4/2 217/4/2 221/4/2
f 221/4/2 217/4/2 222/4/2
f 220/4/2 216/4/2 223/4/2
f 223/4/2 216/4/2 224/4/2
f 227/4/3 226/4/3 225/4/3
f 228/4/3 226/4/3 227/4/3
f 231/2/3 230/2/3 229/2/3
f 232/2/3 230/2/3 231/2/3
f 233/2/3 231/2/3 229/2/3
f 234/3/3 232/3/3 231/3/3
f 234/2/3 231/2/3 233/2/3
f 235/3/3 232/3/3 234/3/3
f 236/3/3 232/3/3 235/3/3
f 239/7/3 236/7/3 235/7/3
f 240/7/3 236/7/3 239/7/3
f 241/4/3 238/4/3 237/4/3
f 242/4/3 238/4/3 241/4/3
f 245/2/3 244/2/3 243/2/3
f 246/2/3 244/2/3 245/2/3
f 247/3/3 246/3/3 245/3/3
f 248/3/3 246/3/3 247/3/3
f 249/7/3 248/7/3 247/7/3
f 250/7/3 248/7/3 249/7/3
f 253/2/3 252/2/3 251/2/3
f 254/2/3 252/2/3 253/2/3
f 255/3/3 254/3/3 253/3/3
f 256/3/3 254/3/3 255/3/3
f 257/7/3 256/7/3 255/7/3
f 258/7/3 256/7/3 257/7/3
f 261/2/3 260/2/3 259/2/3
f 262/2/3 260/2/3 261/2/3
f 263/3/3 262/3/3 261/3/3
f 264/3/3 262/3/3 263/3/3
f 265/7/3 264/7/3 263/7/3
f 266/7/3 264/7/3 265/7/3
f 269/4/3 268/4/3 267/4/3
f 271/4/3 269/4/3 267/4/3
f 271/4/3 270/4/3 269/4/3
f 272/4/3 270/4/3 271/4/3
f 273/4/3 271/4/3 267/4/3
f 274/4/3 271/4/3 273/4/3
f 277/2/3 276/2/3 275/2/3
f 278/2/3 276/2/3 277/2/3
f 279/3/3 278/3/3 277/3/3
f 280/3/3 278/3/3 279/3/3
f 281/7/3 280/7/3 279/7/3
f 282/7/3 280/7/3 281/7/3
f 285/4/3 284/4/3 283/4/3
f 287/4/3 285/4/3 283/4/3
f 287/4/3 286/4/3 285/4/3
f 288/4/3 286/4/3 287/4/3
f 289/4/3 287/4/3 283/4/3
f 290/4/3 287/4/3 289/4/3
f 293/4/3 292/4/3 291/4/3
f 295/4/3 293/4/3 291/4/3
f 295/4/3 294/4/3 293/4/3
f 296/4/3 294/4/3 295/4/3
f 297/4/3 295/4/3 291/4/3
f 298/4/3 295/4/3 297/4/3
f 301/4/3 300/4/3 299/4/3
f 303/4/3 301/4/3 299/4/3
f 303/4/3 302/4/3 301/4/3
f 304/4/3 302/4/3 303/4/3
f 305/4/3 303/4/3 299/4/3
f 306/4/3 303/4/3 305/4/3
f 309/4/3 308/4/3 307/4/3
f 311/4/3 309/4/3 307/4/3
f 311/4/3 310/4/3 309/4/3
f 312/4/3 310/4/3 311/4/3
f 313/4/3 311/4/3 307/4/3
f 314/4/3 311/4/3 313/4/3
f 317/4/3 316/4/3 315/4/3
f 318/4/3 316/4/3 317/4/3
f 321/3/3 320/3/3 319/3/3
f 322/3/3 320/3/3 321/3/3
f 326/4/3 324/4/3 323/4/3
f 326/4/3 325/4/3 324/4/3
f 327/4/3 325/4/3 326/4/3
f 330/4/3 329/4/3 328/4/3
f 331/4/3 329/4/3 330/4/3
f 332/4/4 333/4/4 334/4/4
f 334/4/4 333/4/4 335/4/4
f 336/3/4 337/3/4 338/3/4
f 338/3/4 337/3/4 339/3/4
f 340/4/4 341/4/4 343/4/4
f 341/4/4 342/4/4 343/4/4
f 343/4/4 342/4/4 344/4/4
f 345/4/4 346/4/4 347/4/4
f 347/4/4 346/4/4 348/4/4
f 349/4/4 350/4/4 351/4/4
f 349/4/4 351/4/4 353/4/4
f 351/4/4 352/4/4 353/4/4
f 353/4/4 352/4/4 354/4/4
f 349/4/4 353/4/4 355/4/4
f 355/4/4 353/4/4 356/4/4
f 357/4/4 358/4/4 359/4/4
f 357/4/4 359/4/4 361/4/4
f 359/4/4 360/4/4 361/4/4
f 361/4/4 360/4/4 362/4/4
f 357/4/4 361/4/4 363/4/4
f 363/4/4 361/4/4 364/4/4
f 365/4/4 366/4/4 367/4/4
f 365/4/4 367/4/4 369/4/4
f 367/4/4 368/4/4 369/4/4
f 369/4/4 368/4/4 370/4/4
f 365/4/4 369/4/4 371/4/4
f 371/4/4 369/4/4 372/4/4
f 373/2/4 374/2/4 375/2/4
f 375/2/4 374/2/4 376/2/4
f 377/4/4 378/4/4 379/4/4
f 377/4/4 379/4/4 381/4/4
f 379/4/4 380/4/4 381/4/4
f 381/4/4 380/4/4 382/4/4
f 377/4/4 381/4/4 383/4/4
f 383/4/4 381/4/4 384/4/4
f 375/3/4 376/3/4 385/3/4
f 385/3/4 376/3/4 386/3/4
f 385/7/4 386/7/4 387/7/4
f 387/7/4 386/7/4 388/7/4
f 389/2/4 390/2/4 391/2/4
f 391/2/4 390/2/4 392/2/4
f 393/4/4 394/4/4 395/4/4
f 393/4/4 395/4/4 397/4/4
f 395/4/4 396/4/4 397/4/4
f 397/4/4 396/4/4 398/4/4
f 393/4/4 397/4/4 399/4/4
f 399/4/4 397/4/4 400/4/4
f 391/3/4 392/3/4 401/3/4
f 401/3/4 392/3/4 402/3/4
f 401/7/4 402/7/4 403/7/4
f 403/7/4 402/7/4 404/7/4
f 405/2/4 406/2/4 407/2/4
f 407/2/4 406/2/4 408/2/4
f 407/3/4 408/3/4 409/3/4
f 409/3/4 408/3/4 410/3/4
f 409/7/4 410/7/4 411/7/4
f 411/7/4 410/7/4 412/7/4
f 413/2/4 414/2/4 415/2/4
f 415/2/4 414/2/4 416/2/4
f 415/3/4 416/3/4 417/3/4
f 417/3/4 416/3/4 418/3/4
f 417/7/4 418/7/4 419/7/4
f 419/7/4 418/7/4 420/7/4
f 421/2/4 422/2/4 423/2/4
f 423/2/4 422/2/4 424/2/4
f 421/2/4 423/2/4 425/2/4
f 423/3/4 424/3/4 426/3/4
f 425/2/4 423/2/4 426/2/4
f 426/3/4 424/3/4 427/3/4
f 427/3/4 424/3/4 428/3/4
f 427/7/4 428/7/4 431/7/4
f 431/7/4 428/7/4 432/7/4
f 429/4/4 430/4/4 433/4/4
f 433/4/4 430/4/4 434/4/4
f 435/4/4 436/4/4 437/4/4
f 437/4/4 436/4/4 438/4/4
f 442/4/5 440/4/5 439/4/5
f 443/4/5 440/4/5 442/4/5
f 445/2/5 442/2/5 441/2/5
f 445/2/5 443/2/5 442/2/5
f 446/2/5 443/2/5 445/2/5
f 447/4/5 444/4/5 443/4/5
f 447/2/5 443/2/5 446/2/5
f 448/4/5 444/4/5 447/4/5
f 449/2/5 447/2/5 446/2/5
f 451/3/5 446/3/5 445/3/5
f 451/2/5 445/2/5 441/2/5
f 452/2/5 449/2/5 446/2/5
f 452/3/5 446/3/5 451/3/5
f 453/2/5 451/2/5 441/2/5
f 453/2/5 452/2/5 451/2/5
f 454/2/5 449/2/5 452/2/5
f 454/2/5 452/2/5 453/2/5
f 455/4/5 450/4/5 449/4/5
f 455/2/5 449/2/5 454/2/5
f 456/4/5 450/4/5 455/4/5
f 457/4/5 455/4/5 454/4/5
f 458/4/5 455/4/5 457/4/5
f 461/4/5 460/4/5 459/4/5
f 462/4/5 460/4/5 461/4/5
f 465/3/5 464/3/5 463/3/5
f 466/3/5 464/3/5 465/3/5
f 467/4/6 468/4/6 469/4/6
f 469/4/6 468/4/6 470/4/6
f 470/4/6 468/4/6 471/4/6
f 472/4/6 473/4/6 474/4/6
f 474/4/6 473/4/6 475/4/6
f 475/4/6 473/4/6 476/4/6
f 477/4/6 478/4/6 479/4/6
f 479/4/6 478/4/6 480/4/6
f 481/4/6 482/4/6 483/4/6
f 483/4/6 482/4/6 484/4/6
f 485/4/6 486/4/6 487/4/6
f 487/4/6 486/4/6 488/4/6
f 489/4/6 490/4/6 491/4/6
f 491/4/6 490/4/6 492/4/6
f 493/4/6 494/4/6 495/4/6
f 495/4/6 494/4/6 496/4/6
f 497/3/6 498/3/6 499/3/6
f 499/3/6 498/3/6 500/3/6
f 497/3/6 499/3/6 501/3/6
f 500/3/6 498/3/6 502/3/6
f 497/3/6 501/3/6 503/3/6
f 501/3/6 502/3/6 503/3/6
f 502/3/6 498/3/6 504/3/6
f 503/3/6 502/3/6 504/3/6
f 497/3/6 503/3/6 505/3/6
f 504/3/6 498/3/6 506/3/6
f 497/3/6 505/3/6 507/3/6
f 505/3/6 506/3/6 507/3/6
f 506/3/6 498/3/6 508/3/6
f 507/3/6 506/3/6 508/3/6
f 497/3/6 507/3/6 509/3/6
f 508/3/6 498/3/6 510/3/6
f 497/3/6 509/3/6 511/3/6
f 509/3/6 510/3/6 511/3/6
f 510/3/6 498/3/6 512/3/6
f 511/3/6 510/3/6 512/3/6
f 497/3/6 511/3/6 513/3/6
f 512/3/6 498/3/6 514/3/6
f 497/3/6 513/3/6 515/3/6
f 513/3/6 514/3/6 515/3/6
f 514/3/6 498/3/6 516/3/6
f 515/3/6 514/3/6 516/3/6
f 497/3/6 515/3/6 517/3/6
f 516/3/6 498/3/6 518/3/6
f 497/3/6 517/3/6 519/3/6
f 517/3/6 518/3/6 519/3/6
f 518/3/6 498/3/6 520/3/6
f 519/3/6 518/3/6 520/3/6
f 521/4/6 522/4/6 525/4/6
f 525/4/6 522/4/6 526/4/6
f 523/4/6 524/4/6 527/4/6
f 527/4/6 524/4/6 528/4/6
f 529/4/6 530/4/6 533/4/6
f 533/4/6 530/4/6 534/4/6
f 531/4/6 532/4/6 535/4/6
f 535/4/6 532/4/6 536/4/6
f 537/4/6 538/4/6 541/4/6
f 541/4/6 538/4/6 542/4/6
f 539/4/6 540/4/6 543/4/6
f 543/4/6 540/4/6 544/4/6
f 545/4/6 546/4/6 549/4/6
f 549/4/6 546/4/6 550/4/6
f 547/4/6 548/4/6 551/4/6
f 551/4/6 548/4/6 552/4/6
f 553/4/6 554/4/6 557/4/6
f 557/4/6 554/4/6 558/4/6
f 555/4/6 556/4/6 559/4/6
f 559/4/6 556/4/6 560/4/6
f 561/4/6 562/4/6 563/4/6
f 563/4/6 562/4/6 564/4/6
f 565/4/6 566/4/6 567/4/6
f 567/4/6 566/4/6 568/4/6
f 569/4/6 570/4/6 571/4/6
f 571/4/6 570/4/6 572/4/6
f 573/4/6 574/4/6 575/4/6
f 575/4/6 574/4/6 576/4/6
f 577/4/6 578/4/6 579/4/6
f 579/4/6 578/4/6 580/4/6
f 581/2/6 582/2/6 585/2/6
f 582/3/6 583/3/6 586/3/6
f 585/2/6 582/2/6 586/2/6
f 583/7/6 584/7/6 587/7/6
f 586/3/6 583/3/6 587/3/6
f 587/7/6 584/7/6 588/7/6
f 589/2/6 590/2/6 593/2/6
f 590/3/6 591/3/6 594/3/6
f 593/2/6 590/2/6 594/2/6
f 591/7/6 592/7/6 595/7/6
f 594/3/6 591/3/6 595/3/6
f 595/7/6 592/7/6 596/7/6
f 597/2/6 598/2/6 601/2/6
f 598/3/6 599/3/6 602/3/6
f 601/2/6 598/2/6 602/2/6
f 599/7/6 600/7/6 603/7/6
f 602/3/6 599/3/6 603/3/6
f 603/7/6 600/7/6 604/7/6
f 605/2/6 606/2/6 609/2/6
f 606/3/6 607/3/6 610/3/6
f 609/2/6 606/2/6 610/2/6
f 607/7/6 608/7/6 611/7/6
f 610/3/6 607/3/6 611/3/6
f 611/7/6 608/7/6 612/7/6
f 613/2/6 614/2/6 617/2/6
f 614/3/6 615/3/6 618/3/6
f 617/2/6 614/2/6 618/2/6
f 615/7/6 616/7/6 619/7/6
f 618/3/6 615/3/6 619/3/6
f 619/7/6 616/7/6 620/7/6
f 621/2/6 622/2/6 625/2/6
f 622/3/6 623/3/6 626/3/6
f 625/2/6 622/2/6 626/2/6
f 623/7/6 624/7/6 627/7/6
f 626/3/6 623/3/6 627/3/6
f 627/7/6 624/7/6 628/7/6
f 629/2/6 630/2/6 633/2/6
f 630/3/6 631/3/6 634/3/6
f 633/2/6 630/2/6 634/2/6
f 631/7/6 632/7/6 635/7/6
f 634/3/6 631/3/6 635/3/6
f 635/7/6 632/7/6 636/7/6
f 637/2/6 638/2/6 641/2/6
f 638/3/6 639/3/6 642/3/6
f 641/2/6 638/2/6 642/2/6
f 639/7/6 640/7/6 643/7/6
f 642/3/6 639/3/6 643/3/6
f 643/7/6 640/7/6 644/7/6
f 645/2/6 646/2/6 649/2/6
f 646/3/6 647/3/6 650/3/6
f 649/2/6 646/2/6 650/2/6
f 647/7/6 648/7/6 651/7/6
f 650/3/6 647/3/6 651/3/6
f 651/7/6 648/7/6 652/7/6
