# MagicaVoxel @ Ephtracy

# group
g Level1-4-3

# material
mtllib Level1-4-3.mtl
usemtl palette

# normals
vn -1 0 0
vn 1 0 0
vn 0 0 1
vn 0 0 -1
vn 0 -1 0
vn 0 1 0

# texcoords
vt 0.943359 0.5
vt 0.978516 0.5

# verts
v -4.5 0 5
v -4.5 0 4
v -4.5 0 -3
v -4.5 0 -4
v -4.5 4 4
v -4.5 4 -3
v -4.5 5 4
v -4.5 5 -3
v -4.5 16 4
v -4.5 16 3
v -4.5 16 -2
v -4.5 16 -3
v -4.5 17 4
v -4.5 17 3
v -4.5 17 2
v -4.5 17 -1
v -4.5 17 -2
v -4.5 17 -3
v -4.5 18 3
v -4.5 18 2
v -4.5 18 -1
v -4.5 18 -2
v -4.5 19 4
v -4.5 19 2
v -4.5 19 -1
v -4.5 19 -3
v -4.5 20 4
v -4.5 20 -4
v -4.5 27 5
v -4.5 27 4
v -3.5 19 -4
v -3.5 19 -5
v -3.5 20 4
v -3.5 20 -3
v -3.5 20 -4
v -3.5 20 -5
v -3.5 21 4
v -3.5 21 -3
v -3.5 27 5
v -3.5 27 4
v -3.5 28 5
v -3.5 28 4
v -2.5 20 -3
v -2.5 20 -4
v -2.5 21 -3
v -2.5 21 -4
v 2.5 26 5
v 2.5 26 4
v 2.5 27 5
v 2.5 27 4
v 3.5 0 5
v 3.5 0 4
v 3.5 0 -3
v 3.5 0 -4
v 3.5 4 4
v 3.5 4 -3
v 3.5 5 5
v 3.5 5 4
v 3.5 5 -3
v 3.5 6 5
v 3.5 6 4
v 3.5 9 -3
v 3.5 9 -4
v 3.5 10 -3
v 3.5 10 -4
v 3.5 16 4
v 3.5 16 3
v 3.5 16 -2
v 3.5 16 -3
v 3.5 17 4
v 3.5 17 3
v 3.5 17 2
v 3.5 17 -1
v 3.5 17 -2
v 3.5 17 -3
v 3.5 18 3
v 3.5 18 2
v 3.5 18 -1
v 3.5 18 -2
v 3.5 19 5
v 3.5 19 4
v 3.5 19 2
v 3.5 19 -1
v 3.5 19 -3
v 3.5 19 -4
v 3.5 20 5
v 3.5 20 4
v 3.5 21 5
v 3.5 21 4
v 3.5 22 5
v 3.5 22 4
v 3.5 23 5
v 3.5 23 4
v 3.5 24 5
v 3.5 24 4
v 3.5 25 5
v 3.5 25 4
v -3.5 0 5
v -3.5 0 4
v -3.5 0 -3
v -3.5 0 -4
v -3.5 4 4
v -3.5 4 -3
v -3.5 5 5
v -3.5 5 4
v -3.5 5 -3
v -3.5 6 5
v -3.5 6 4
v -3.5 9 -3
v -3.5 9 -4
v -3.5 10 -3
v -3.5 10 -4
v -3.5 16 4
v -3.5 16 3
v -3.5 16 -2
v -3.5 16 -3
v -3.5 17 4
v -3.5 17 3
v -3.5 17 2
v -3.5 17 -1
v -3.5 17 -2
v -3.5 17 -3
v -3.5 18 3
v -3.5 18 2
v -3.5 18 -1
v -3.5 18 -2
v -3.5 19 5
v -3.5 19 4
v -3.5 19 2
v -3.5 19 -1
v -3.5 19 -3
v -3.5 19 -4
v -3.5 20 5
v -3.5 20 4
v -3.5 21 5
v -3.5 21 4
v -3.5 22 5
v -3.5 22 4
v -3.5 23 5
v -3.5 23 4
v -3.5 24 5
v -3.5 24 4
v -3.5 25 5
v -3.5 25 4
v -2.5 26 5
v -2.5 26 4
v -2.5 27 5
v -2.5 27 4
v 2.5 20 -3
v 2.5 20 -4
v 2.5 21 -3
v 2.5 21 -4
v 3.5 19 -4
v 3.5 19 -5
v 3.5 20 4
v 3.5 20 -3
v 3.5 20 -4
v 3.5 20 -5
v 3.5 21 4
v 3.5 21 -3
v 3.5 27 5
v 3.5 27 4
v 3.5 28 5
v 3.5 28 4
v 4.5 0 5
v 4.5 0 4
v 4.5 0 -3
v 4.5 0 -4
v 4.5 4 4
v 4.5 4 -3
v 4.5 5 4
v 4.5 5 -3
v 4.5 16 4
v 4.5 16 3
v 4.5 16 -2
v 4.5 16 -3
v 4.5 17 4
v 4.5 17 3
v 4.5 17 2
v 4.5 17 -1
v 4.5 17 -2
v 4.5 17 -3
v 4.5 18 3
v 4.5 18 2
v 4.5 18 -1
v 4.5 18 -2
v 4.5 19 4
v 4.5 19 2
v 4.5 19 -1
v 4.5 19 -3
v 4.5 20 4
v 4.5 20 -4
v 4.5 27 5
v 4.5 27 4
v -4.5 0 5
v -4.5 27 5
v -3.5 0 5
v -3.5 5 5
v -3.5 6 5
v -3.5 19 5
v -3.5 20 5
v -3.5 21 5
v -3.5 22 5
v -3.5 23 5
v -3.5 24 5
v -3.5 25 5
v -3.5 27 5
v -3.5 28 5
v -2.5 26 5
v -2.5 27 5
v 2.5 26 5
v 2.5 27 5
v 3.5 0 5
v 3.5 5 5
v 3.5 6 5
v 3.5 19 5
v 3.5 20 5
v 3.5 21 5
v 3.5 22 5
v 3.5 23 5
v 3.5 24 5
v 3.5 25 5
v 3.5 27 5
v 3.5 28 5
v 4.5 0 5
v 4.5 27 5
v -3.5 20 4
v -3.5 21 4
v 3.5 20 4
v 3.5 21 4
v -4.5 17 3
v -4.5 18 3
v -3.5 17 3
v -3.5 18 3
v 3.5 17 3
v 3.5 18 3
v 4.5 17 3
v 4.5 18 3
v -4.5 18 2
v -4.5 19 2
v -3.5 18 2
v -3.5 19 2
v 3.5 18 2
v 3.5 19 2
v 4.5 18 2
v 4.5 19 2
v -4.5 17 -1
v -4.5 18 -1
v -3.5 17 -1
v -3.5 18 -1
v 3.5 17 -1
v 3.5 18 -1
v 4.5 17 -1
v 4.5 18 -1
v -4.5 16 -2
v -4.5 17 -2
v -3.5 16 -2
v -3.5 17 -2
v 3.5 16 -2
v 3.5 17 -2
v 4.5 16 -2
v 4.5 17 -2
v -4.5 0 -3
v -4.5 4 -3
v -4.5 5 -3
v -4.5 16 -3
v -4.5 17 -3
v -4.5 19 -3
v -3.5 0 -3
v -3.5 4 -3
v -3.5 5 -3
v -3.5 9 -3
v -3.5 10 -3
v -3.5 16 -3
v -3.5 17 -3
v -3.5 19 -3
v 3.5 0 -3
v 3.5 4 -3
v 3.5 5 -3
v 3.5 9 -3
v 3.5 10 -3
v 3.5 16 -3
v 3.5 17 -3
v 3.5 19 -3
v 4.5 0 -3
v 4.5 4 -3
v 4.5 5 -3
v 4.5 16 -3
v 4.5 17 -3
v 4.5 19 -3
v -4.5 0 4
v -4.5 4 4
v -4.5 5 4
v -4.5 16 4
v -4.5 17 4
v -4.5 19 4
v -4.5 20 4
v -4.5 27 4
v -3.5 0 4
v -3.5 4 4
v -3.5 5 4
v -3.5 6 4
v -3.5 16 4
v -3.5 17 4
v -3.5 19 4
v -3.5 20 4
v -3.5 21 4
v -3.5 22 4
v -3.5 23 4
v -3.5 24 4
v -3.5 25 4
v -3.5 27 4
v -3.5 28 4
v -2.5 26 4
v -2.5 27 4
v 2.5 26 4
v 2.5 27 4
v 3.5 0 4
v 3.5 4 4
v 3.5 5 4
v 3.5 6 4
v 3.5 16 4
v 3.5 17 4
v 3.5 19 4
v 3.5 20 4
v 3.5 21 4
v 3.5 22 4
v 3.5 23 4
v 3.5 24 4
v 3.5 25 4
v 3.5 27 4
v 3.5 28 4
v 4.5 0 4
v 4.5 4 4
v 4.5 5 4
v 4.5 16 4
v 4.5 17 4
v 4.5 19 4
v 4.5 20 4
v 4.5 27 4
v -4.5 16 3
v -4.5 17 3
v -3.5 16 3
v -3.5 17 3
v 3.5 16 3
v 3.5 17 3
v 4.5 16 3
v 4.5 17 3
v -4.5 17 2
v -4.5 18 2
v -3.5 17 2
v -3.5 18 2
v 3.5 17 2
v 3.5 18 2
v 4.5 17 2
v 4.5 18 2
v -4.5 18 -1
v -4.5 19 -1
v -3.5 18 -1
v -3.5 19 -1
v 3.5 18 -1
v 3.5 19 -1
v 4.5 18 -1
v 4.5 19 -1
v -4.5 17 -2
v -4.5 18 -2
v -3.5 17 -2
v -3.5 18 -2
v 3.5 17 -2
v 3.5 18 -2
v 4.5 17 -2
v 4.5 18 -2
v -3.5 20 -3
v -3.5 21 -3
v -2.5 20 -3
v -2.5 21 -3
v 2.5 20 -3
v 2.5 21 -3
v 3.5 20 -3
v 3.5 21 -3
v -4.5 0 -4
v -4.5 20 -4
v -3.5 0 -4
v -3.5 9 -4
v -3.5 10 -4
v -3.5 19 -4
v -3.5 20 -4
v -2.5 20 -4
v -2.5 21 -4
v 2.5 20 -4
v 2.5 21 -4
v 3.5 0 -4
v 3.5 9 -4
v 3.5 10 -4
v 3.5 19 -4
v 3.5 20 -4
v 4.5 0 -4
v 4.5 20 -4
v -3.5 19 -5
v -3.5 20 -5
v 3.5 19 -5
v 3.5 20 -5
v -4.5 0 5
v -3.5 0 5
v 3.5 0 5
v 4.5 0 5
v -4.5 0 4
v -3.5 0 4
v 3.5 0 4
v 4.5 0 4
v -4.5 0 -3
v -3.5 0 -3
v 3.5 0 -3
v 4.5 0 -3
v -4.5 0 -4
v -3.5 0 -4
v 3.5 0 -4
v 4.5 0 -4
v -4.5 4 4
v -3.5 4 4
v 3.5 4 4
v 4.5 4 4
v -4.5 4 -3
v -3.5 4 -3
v 3.5 4 -3
v 4.5 4 -3
v -3.5 5 5
v 3.5 5 5
v -3.5 5 4
v 3.5 5 4
v -3.5 9 -3
v 3.5 9 -3
v -3.5 9 -4
v 3.5 9 -4
v -4.5 16 4
v -3.5 16 4
v 3.5 16 4
v 4.5 16 4
v -4.5 16 3
v -3.5 16 3
v 3.5 16 3
v 4.5 16 3
v -4.5 16 -2
v -3.5 16 -2
v 3.5 16 -2
v 4.5 16 -2
v -4.5 16 -3
v -3.5 16 -3
v 3.5 16 -3
v 4.5 16 -3
v -4.5 17 3
v -3.5 17 3
v 3.5 17 3
v 4.5 17 3
v -4.5 17 2
v -3.5 17 2
v 3.5 17 2
v 4.5 17 2
v -4.5 17 -1
v -3.5 17 -1
v 3.5 17 -1
v 4.5 17 -1
v -4.5 17 -2
v -3.5 17 -2
v 3.5 17 -2
v 4.5 17 -2
v -4.5 18 2
v -3.5 18 2
v 3.5 18 2
v 4.5 18 2
v -4.5 18 -1
v -3.5 18 -1
v 3.5 18 -1
v 4.5 18 -1
v -3.5 19 5
v 3.5 19 5
v -4.5 19 4
v -3.5 19 4
v 3.5 19 4
v 4.5 19 4
v -4.5 19 2
v -3.5 19 2
v 3.5 19 2
v 4.5 19 2
v -4.5 19 -1
v -3.5 19 -1
v 3.5 19 -1
v 4.5 19 -1
v -4.5 19 -3
v -3.5 19 -3
v 3.5 19 -3
v 4.5 19 -3
v -3.5 19 -4
v 3.5 19 -4
v -3.5 19 -5
v 3.5 19 -5
v -3.5 21 5
v 3.5 21 5
v -3.5 21 4
v 3.5 21 4
v -3.5 23 5
v 3.5 23 5
v -3.5 23 4
v 3.5 23 4
v -3.5 25 5
v 3.5 25 5
v -3.5 25 4
v 3.5 25 4
v -2.5 27 5
v 2.5 27 5
v -2.5 27 4
v 2.5 27 4
v -4.5 5 4
v -3.5 5 4
v 3.5 5 4
v 4.5 5 4
v -4.5 5 -3
v -3.5 5 -3
v 3.5 5 -3
v 4.5 5 -3
v -3.5 6 5
v 3.5 6 5
v -3.5 6 4
v 3.5 6 4
v -3.5 10 -3
v 3.5 10 -3
v -3.5 10 -4
v 3.5 10 -4
v -4.5 17 4
v -3.5 17 4
v 3.5 17 4
v 4.5 17 4
v -4.5 17 3
v -3.5 17 3
v 3.5 17 3
v 4.5 17 3
v -4.5 17 -2
v -3.5 17 -2
v 3.5 17 -2
v 4.5 17 -2
v -4.5 17 -3
v -3.5 17 -3
v 3.5 17 -3
v 4.5 17 -3
v -4.5 18 3
v -3.5 18 3
v 3.5 18 3
v 4.5 18 3
v -4.5 18 2
v -3.5 18 2
v 3.5 18 2
v 4.5 18 2
v -4.5 18 -1
v -3.5 18 -1
v 3.5 18 -1
v 4.5 18 -1
v -4.5 18 -2
v -3.5 18 -2
v 3.5 18 -2
v 4.5 18 -2
v -3.5 20 5
v 3.5 20 5
v -4.5 20 4
v -3.5 20 4
v 3.5 20 4
v 4.5 20 4
v -3.5 20 -3
v -2.5 20 -3
v 2.5 20 -3
v 3.5 20 -3
v -4.5 20 -4
v -3.5 20 -4
v -2.5 20 -4
v 2.5 20 -4
v 3.5 20 -4
v 4.5 20 -4
v -3.5 20 -5
v 3.5 20 -5
v -3.5 21 4
v 3.5 21 4
v -3.5 21 -3
v -2.5 21 -3
v 2.5 21 -3
v 3.5 21 -3
v -2.5 21 -4
v 2.5 21 -4
v -3.5 22 5
v 3.5 22 5
v -3.5 22 4
v 3.5 22 4
v -3.5 24 5
v 3.5 24 5
v -3.5 24 4
v 3.5 24 4
v -2.5 26 5
v 2.5 26 5
v -2.5 26 4
v 2.5 26 4
v -4.5 27 5
v -3.5 27 5
v 3.5 27 5
v 4.5 27 5
v -4.5 27 4
v -3.5 27 4
v 3.5 27 4
v 4.5 27 4
v -3.5 28 5
v 3.5 28 5
v -3.5 28 4
v 3.5 28 4

# faces
f 5/1/1 2/1/1 1/1/1
f 6/1/1 4/1/1 3/1/1
f 7/1/1 5/1/1 1/1/1
f 7/1/1 6/1/1 5/1/1
f 8/1/1 4/1/1 6/1/1
f 8/1/1 6/1/1 7/1/1
f 9/1/1 7/1/1 1/1/1
f 12/1/1 4/1/1 8/1/1
f 13/1/1 10/1/1 9/1/1
f 13/1/1 9/1/1 1/1/1
f 14/1/1 10/1/1 13/1/1
f 17/1/1 12/1/1 11/1/1
f 18/1/1 4/1/1 12/1/1
f 18/1/1 12/1/1 17/1/1
f 19/1/1 15/1/1 14/1/1
f 20/1/1 15/1/1 19/1/1
f 21/1/1 17/1/1 16/1/1
f 22/1/1 17/1/1 21/1/1
f 23/1/1 13/1/1 1/1/1
f 24/1/1 21/1/1 20/1/1
f 25/1/1 21/1/1 24/1/1
f 26/1/1 4/1/1 18/1/1
f 27/1/1 25/1/1 24/1/1
f 27/1/1 26/1/1 25/1/1
f 27/1/1 24/1/1 23/1/1
f 27/1/1 23/1/1 1/1/1
f 28/1/1 4/1/1 26/1/1
f 28/1/1 26/1/1 27/1/1
f 29/1/1 27/1/1 1/1/1
f 30/1/1 27/1/1 29/1/1
f 35/1/1 32/1/1 31/1/1
f 36/1/1 32/1/1 35/1/1
f 37/2/1 34/2/1 33/2/1
f 38/2/1 34/2/1 37/2/1
f 41/1/1 40/1/1 39/1/1
f 42/1/1 40/1/1 41/1/1
f 45/2/1 44/2/1 43/2/1
f 46/2/1 44/2/1 45/2/1
f 49/1/1 48/1/1 47/1/1
f 50/1/1 48/1/1 49/1/1
f 55/1/1 52/1/1 51/1/1
f 56/1/1 54/1/1 53/1/1
f 57/1/1 55/1/1 51/1/1
f 57/1/1 56/1/1 55/1/1
f 58/1/1 56/1/1 57/1/1
f 59/1/1 54/1/1 56/1/1
f 59/1/1 56/1/1 58/1/1
f 62/1/1 54/1/1 59/1/1
f 63/1/1 54/1/1 62/1/1
f 66/1/1 61/1/1 60/1/1
f 69/1/1 65/1/1 64/1/1
f 70/1/1 67/1/1 66/1/1
f 70/1/1 66/1/1 60/1/1
f 71/1/1 67/1/1 70/1/1
f 74/1/1 69/1/1 68/1/1
f 75/1/1 65/1/1 69/1/1
f 75/1/1 69/1/1 74/1/1
f 76/1/1 72/1/1 71/1/1
f 77/1/1 72/1/1 76/1/1
f 78/1/1 74/1/1 73/1/1
f 79/1/1 74/1/1 78/1/1
f 80/1/1 70/1/1 60/1/1
f 81/1/1 70/1/1 80/1/1
f 82/1/1 78/1/1 77/1/1
f 83/1/1 78/1/1 82/1/1
f 84/1/1 65/1/1 75/1/1
f 85/1/1 65/1/1 84/1/1
f 88/1/1 87/1/1 86/1/1
f 89/1/1 87/1/1 88/1/1
f 92/1/1 91/1/1 90/1/1
f 93/1/1 91/1/1 92/1/1
f 96/1/1 95/1/1 94/1/1
f 97/1/1 95/1/1 96/1/1
f 98/1/2 99/1/2 102/1/2
f 100/1/2 101/1/2 103/1/2
f 98/1/2 102/1/2 104/1/2
f 102/1/2 103/1/2 104/1/2
f 104/1/2 103/1/2 105/1/2
f 103/1/2 101/1/2 106/1/2
f 105/1/2 103/1/2 106/1/2
f 106/1/2 101/1/2 109/1/2
f 109/1/2 101/1/2 110/1/2
f 107/1/2 108/1/2 113/1/2
f 111/1/2 112/1/2 116/1/2
f 113/1/2 114/1/2 117/1/2
f 107/1/2 113/1/2 117/1/2
f 117/1/2 114/1/2 118/1/2
f 115/1/2 116/1/2 121/1/2
f 116/1/2 112/1/2 122/1/2
f 121/1/2 116/1/2 122/1/2
f 118/1/2 119/1/2 123/1/2
f 123/1/2 119/1/2 124/1/2
f 120/1/2 121/1/2 125/1/2
f 125/1/2 121/1/2 126/1/2
f 107/1/2 117/1/2 127/1/2
f 127/1/2 117/1/2 128/1/2
f 124/1/2 125/1/2 129/1/2
f 129/1/2 125/1/2 130/1/2
f 122/1/2 112/1/2 131/1/2
f 131/1/2 112/1/2 132/1/2
f 133/1/2 134/1/2 135/1/2
f 135/1/2 134/1/2 136/1/2
f 137/1/2 138/1/2 139/1/2
f 139/1/2 138/1/2 140/1/2
f 141/1/2 142/1/2 143/1/2
f 143/1/2 142/1/2 144/1/2
f 145/1/2 146/1/2 147/1/2
f 147/1/2 146/1/2 148/1/2
f 149/2/2 150/2/2 151/2/2
f 151/2/2 150/2/2 152/2/2
f 153/1/2 154/1/2 157/1/2
f 157/1/2 154/1/2 158/1/2
f 155/2/2 156/2/2 159/2/2
f 159/2/2 156/2/2 160/2/2
f 161/1/2 162/1/2 163/1/2
f 163/1/2 162/1/2 164/1/2
f 165/1/2 166/1/2 169/1/2
f 167/1/2 168/1/2 170/1/2
f 165/1/2 169/1/2 171/1/2
f 169/1/2 170/1/2 171/1/2
f 170/1/2 168/1/2 172/1/2
f 171/1/2 170/1/2 172/1/2
f 165/1/2 171/1/2 173/1/2
f 172/1/2 168/1/2 176/1/2
f 173/1/2 174/1/2 177/1/2
f 165/1/2 173/1/2 177/1/2
f 177/1/2 174/1/2 178/1/2
f 175/1/2 176/1/2 181/1/2
f 176/1/2 168/1/2 182/1/2
f 181/1/2 176/1/2 182/1/2
f 178/1/2 179/1/2 183/1/2
f 183/1/2 179/1/2 184/1/2
f 180/1/2 181/1/2 185/1/2
f 185/1/2 181/1/2 186/1/2
f 165/1/2 177/1/2 187/1/2
f 184/1/2 185/1/2 188/1/2
f 188/1/2 185/1/2 189/1/2
f 182/1/2 168/1/2 190/1/2
f 188/1/2 189/1/2 191/1/2
f 189/1/2 190/1/2 191/1/2
f 187/1/2 188/1/2 191/1/2
f 165/1/2 187/1/2 191/1/2
f 190/1/2 168/1/2 192/1/2
f 191/1/2 190/1/2 192/1/2
f 165/1/2 191/1/2 193/1/2
f 193/1/2 191/1/2 194/1/2
f 197/1/3 196/1/3 195/1/3
f 198/1/3 196/1/3 197/1/3
f 199/1/3 196/1/3 198/1/3
f 200/1/3 196/1/3 199/1/3
f 201/1/3 196/1/3 200/1/3
f 202/1/3 196/1/3 201/1/3
f 203/1/3 196/1/3 202/1/3
f 204/1/3 196/1/3 203/1/3
f 205/1/3 196/1/3 204/1/3
f 206/1/3 196/1/3 205/1/3
f 207/1/3 196/1/3 206/1/3
f 209/1/3 208/1/3 207/1/3
f 209/1/3 207/1/3 206/1/3
f 210/1/3 208/1/3 209/1/3
f 211/1/3 209/1/3 206/1/3
f 212/1/3 208/1/3 210/1/3
f 214/1/3 199/1/3 198/1/3
f 215/1/3 199/1/3 214/1/3
f 216/1/3 201/1/3 200/1/3
f 217/1/3 201/1/3 216/1/3
f 218/1/3 203/1/3 202/1/3
f 219/1/3 203/1/3 218/1/3
f 220/1/3 205/1/3 204/1/3
f 221/1/3 205/1/3 220/1/3
f 222/1/3 212/1/3 211/1/3
f 222/1/3 211/1/3 206/1/3
f 223/1/3 208/1/3 212/1/3
f 223/1/3 212/1/3 222/1/3
f 224/1/3 208/1/3 223/1/3
f 225/1/3 219/1/3 218/1/3
f 225/1/3 221/1/3 220/1/3
f 225/1/3 223/1/3 222/1/3
f 225/1/3 217/1/3 216/1/3
f 225/1/3 215/1/3 214/1/3
f 225/1/3 218/1/3 217/1/3
f 225/1/3 220/1/3 219/1/3
f 225/1/3 216/1/3 215/1/3
f 225/1/3 222/1/3 221/1/3
f 225/1/3 214/1/3 213/1/3
f 226/1/3 223/1/3 225/1/3
f 229/2/3 228/2/3 227/2/3
f 230/2/3 228/2/3 229/2/3
f 233/1/3 232/1/3 231/1/3
f 234/1/3 232/1/3 233/1/3
f 237/1/3 236/1/3 235/1/3
f 238/1/3 236/1/3 237/1/3
f 241/1/3 240/1/3 239/1/3
f 242/1/3 240/1/3 241/1/3
f 245/1/3 244/1/3 243/1/3
f 246/1/3 244/1/3 245/1/3
f 249/1/3 248/1/3 247/1/3
f 250/1/3 248/1/3 249/1/3
f 253/1/3 252/1/3 251/1/3
f 254/1/3 252/1/3 253/1/3
f 257/1/3 256/1/3 255/1/3
f 258/1/3 256/1/3 257/1/3
f 261/1/3 260/1/3 259/1/3
f 262/1/3 260/1/3 261/1/3
f 269/1/3 264/1/3 263/1/3
f 270/1/3 264/1/3 269/1/3
f 271/1/3 266/1/3 265/1/3
f 272/1/3 266/1/3 271/1/3
f 273/1/3 266/1/3 272/1/3
f 274/1/3 266/1/3 273/1/3
f 275/1/3 268/1/3 267/1/3
f 276/1/3 268/1/3 275/1/3
f 280/1/3 273/1/3 272/1/3
f 281/1/3 273/1/3 280/1/3
f 285/1/3 278/1/3 277/1/3
f 286/1/3 278/1/3 285/1/3
f 287/1/3 280/1/3 279/1/3
f 287/1/3 281/1/3 280/1/3
f 287/1/3 282/1/3 281/1/3
f 288/1/3 282/1/3 287/1/3
f 289/1/3 284/1/3 283/1/3
f 290/1/3 284/1/3 289/1/3
f 291/1/4 292/1/4 299/1/4
f 299/1/4 292/1/4 300/1/4
f 293/1/4 294/1/4 301/1/4
f 301/1/4 294/1/4 302/1/4
f 302/1/4 294/1/4 303/1/4
f 295/1/4 296/1/4 304/1/4
f 304/1/4 296/1/4 305/1/4
f 297/1/4 298/1/4 306/1/4
f 306/1/4 298/1/4 307/1/4
f 307/1/4 298/1/4 308/1/4
f 308/1/4 298/1/4 309/1/4
f 309/1/4 298/1/4 310/1/4
f 310/1/4 298/1/4 311/1/4
f 311/1/4 298/1/4 312/1/4
f 312/1/4 313/1/4 314/1/4
f 311/1/4 312/1/4 314/1/4
f 314/1/4 313/1/4 315/1/4
f 311/1/4 314/1/4 316/1/4
f 315/1/4 313/1/4 317/1/4
f 301/1/4 302/1/4 320/1/4
f 320/1/4 302/1/4 321/1/4
f 307/1/4 308/1/4 326/1/4
f 326/1/4 308/1/4 327/1/4
f 309/1/4 310/1/4 328/1/4
f 328/1/4 310/1/4 329/1/4
f 311/1/4 316/1/4 330/1/4
f 316/1/4 317/1/4 330/1/4
f 317/1/4 313/1/4 331/1/4
f 330/1/4 317/1/4 331/1/4
f 331/1/4 313/1/4 332/1/4
f 318/1/4 319/1/4 333/1/4
f 333/1/4 319/1/4 334/1/4
f 320/1/4 321/1/4 335/1/4
f 321/1/4 322/1/4 335/1/4
f 335/1/4 322/1/4 336/1/4
f 323/1/4 324/1/4 337/1/4
f 337/1/4 324/1/4 338/1/4
f 326/1/4 327/1/4 339/1/4
f 328/1/4 329/1/4 339/1/4
f 329/1/4 330/1/4 339/1/4
f 327/1/4 328/1/4 339/1/4
f 330/1/4 331/1/4 339/1/4
f 325/1/4 326/1/4 339/1/4
f 339/1/4 331/1/4 340/1/4
f 341/1/4 342/1/4 343/1/4
f 343/1/4 342/1/4 344/1/4
f 345/1/4 346/1/4 347/1/4
f 347/1/4 346/1/4 348/1/4
f 349/1/4 350/1/4 351/1/4
f 351/1/4 350/1/4 352/1/4
f 353/1/4 354/1/4 355/1/4
f 355/1/4 354/1/4 356/1/4
f 357/1/4 358/1/4 359/1/4
f 359/1/4 358/1/4 360/1/4
f 361/1/4 362/1/4 363/1/4
f 363/1/4 362/1/4 364/1/4
f 365/1/4 366/1/4 367/1/4
f 367/1/4 366/1/4 368/1/4
f 369/1/4 370/1/4 371/1/4
f 371/1/4 370/1/4 372/1/4
f 373/2/4 374/2/4 375/2/4
f 375/2/4 374/2/4 376/2/4
f 377/2/4 378/2/4 379/2/4
f 379/2/4 378/2/4 380/2/4
f 381/1/4 382/1/4 383/1/4
f 383/1/4 382/1/4 384/1/4
f 384/1/4 382/1/4 385/1/4
f 385/1/4 382/1/4 386/1/4
f 386/1/4 382/1/4 387/1/4
f 388/2/4 389/2/4 390/2/4
f 390/2/4 389/2/4 391/2/4
f 384/1/4 385/1/4 393/1/4
f 393/1/4 385/1/4 394/1/4
f 392/1/4 393/1/4 397/1/4
f 395/1/4 396/1/4 397/1/4
f 394/1/4 395/1/4 397/1/4
f 393/1/4 394/1/4 397/1/4
f 397/1/4 396/1/4 398/1/4
f 399/1/4 400/1/4 401/1/4
f 401/1/4 400/1/4 402/1/4
f 407/1/5 404/1/5 403/1/5
f 408/1/5 404/1/5 407/1/5
f 409/1/5 406/1/5 405/1/5
f 410/1/5 406/1/5 409/1/5
f 415/1/5 412/1/5 411/1/5
f 416/1/5 412/1/5 415/1/5
f 417/1/5 414/1/5 413/1/5
f 418/1/5 414/1/5 417/1/5
f 423/1/5 420/1/5 419/1/5
f 424/1/5 420/1/5 423/1/5
f 425/1/5 422/1/5 421/1/5
f 426/1/5 422/1/5 425/1/5
f 429/1/5 428/1/5 427/1/5
f 430/1/5 428/1/5 429/1/5
f 433/1/5 432/1/5 431/1/5
f 434/1/5 432/1/5 433/1/5
f 439/1/5 436/1/5 435/1/5
f 440/1/5 436/1/5 439/1/5
f 441/1/5 438/1/5 437/1/5
f 442/1/5 438/1/5 441/1/5
f 447/1/5 444/1/5 443/1/5
f 448/1/5 444/1/5 447/1/5
f 449/1/5 446/1/5 445/1/5
f 450/1/5 446/1/5 449/1/5
f 455/1/5 452/1/5 451/1/5
f 456/1/5 452/1/5 455/1/5
f 457/1/5 454/1/5 453/1/5
f 458/1/5 454/1/5 457/1/5
f 463/1/5 460/1/5 459/1/5
f 464/1/5 460/1/5 463/1/5
f 465/1/5 462/1/5 461/1/5
f 466/1/5 462/1/5 465/1/5
f 471/1/5 468/1/5 467/1/5
f 472/1/5 468/1/5 471/1/5
f 473/1/5 470/1/5 469/1/5
f 474/1/5 470/1/5 473/1/5
f 478/1/5 476/1/5 475/1/5
f 479/1/5 476/1/5 478/1/5
f 481/1/5 478/1/5 477/1/5
f 481/1/5 480/1/5 479/1/5
f 481/1/5 479/1/5 478/1/5
f 482/1/5 480/1/5 481/1/5
f 483/1/5 480/1/5 482/1/5
f 484/1/5 480/1/5 483/1/5
f 486/1/5 483/1/5 482/1/5
f 487/1/5 483/1/5 486/1/5
f 489/1/5 486/1/5 485/1/5
f 489/1/5 488/1/5 487/1/5
f 489/1/5 487/1/5 486/1/5
f 490/1/5 488/1/5 489/1/5
f 491/1/5 488/1/5 490/1/5
f 492/1/5 488/1/5 491/1/5
f 493/1/5 491/1/5 490/1/5
f 494/1/5 491/1/5 493/1/5
f 495/1/5 494/1/5 493/1/5
f 496/1/5 494/1/5 495/1/5
f 499/1/5 498/1/5 497/1/5
f 500/1/5 498/1/5 499/1/5
f 503/1/5 502/1/5 501/1/5
f 504/1/5 502/1/5 503/1/5
f 507/1/5 506/1/5 505/1/5
f 508/1/5 506/1/5 507/1/5
f 511/1/5 510/1/5 509/1/5
f 512/1/5 510/1/5 511/1/5
f 513/1/6 514/1/6 517/1/6
f 517/1/6 514/1/6 518/1/6
f 515/1/6 516/1/6 519/1/6
f 519/1/6 516/1/6 520/1/6
f 521/1/6 522/1/6 523/1/6
f 523/1/6 522/1/6 524/1/6
f 525/1/6 526/1/6 527/1/6
f 527/1/6 526/1/6 528/1/6
f 529/1/6 530/1/6 533/1/6
f 533/1/6 530/1/6 534/1/6
f 531/1/6 532/1/6 535/1/6
f 535/1/6 532/1/6 536/1/6
f 537/1/6 538/1/6 541/1/6
f 541/1/6 538/1/6 542/1/6
f 539/1/6 540/1/6 543/1/6
f 543/1/6 540/1/6 544/1/6
f 545/1/6 546/1/6 549/1/6
f 549/1/6 546/1/6 550/1/6
f 547/1/6 548/1/6 551/1/6
f 551/1/6 548/1/6 552/1/6
f 553/1/6 554/1/6 557/1/6
f 557/1/6 554/1/6 558/1/6
f 555/1/6 556/1/6 559/1/6
f 559/1/6 556/1/6 560/1/6
f 561/1/6 562/1/6 564/1/6
f 564/1/6 562/1/6 565/1/6
f 563/1/6 564/1/6 567/1/6
f 565/1/6 566/1/6 570/1/6
f 567/1/6 568/1/6 571/1/6
f 563/1/6 567/1/6 571/1/6
f 571/1/6 568/1/6 572/1/6
f 572/1/6 568/1/6 573/1/6
f 569/1/6 570/1/6 574/1/6
f 570/1/6 566/1/6 575/1/6
f 574/1/6 570/1/6 575/1/6
f 575/1/6 566/1/6 576/1/6
f 572/1/6 573/1/6 577/1/6
f 573/1/6 574/1/6 577/1/6
f 574/1/6 575/1/6 577/1/6
f 577/1/6 575/1/6 578/1/6
f 579/2/6 580/2/6 581/2/6
f 581/2/6 580/2/6 582/2/6
f 582/2/6 580/2/6 583/2/6
f 583/2/6 580/2/6 584/2/6
f 582/2/6 583/2/6 585/2/6
f 585/2/6 583/2/6 586/2/6
f 587/1/6 588/1/6 589/1/6
f 589/1/6 588/1/6 590/1/6
f 591/1/6 592/1/6 593/1/6
f 593/1/6 592/1/6 594/1/6
f 595/1/6 596/1/6 597/1/6
f 597/1/6 596/1/6 598/1/6
f 599/1/6 600/1/6 603/1/6
f 603/1/6 600/1/6 604/1/6
f 601/1/6 602/1/6 605/1/6
f 605/1/6 602/1/6 606/1/6
f 607/1/6 608/1/6 609/1/6
f 609/1/6 608/1/6 610/1/6
