# MagicaVoxel @ Ephtracy

# group
g Level1-19

# material
mtllib Level1-19.mtl
usemtl palette

# normals
vn -1 0 0
vn 1 0 0
vn 0 0 1
vn 0 0 -1
vn 0 -1 0
vn 0 1 0

# texcoords
vt 0.943359 0.5
vt 0.982422 0.5

# verts
v -13 0 1
v -13 0 -0
v -13 56 1
v -13 56 -0
v -12 27 -0
v -12 27 -1
v -12 28 -0
v -12 28 -1
v -9 27 -0
v -9 27 -1
v -9 28 -0
v -9 28 -1
v 13 0 1
v 13 0 -0
v 13 56 1
v 13 56 -0
v -13 0 1
v -13 56 1
v 13 0 1
v 13 56 1
v -13 0 -0
v -13 56 -0
v -12 27 -0
v -12 28 -0
v -9 27 -0
v -9 28 -0
v 13 0 -0
v 13 56 -0
v -12 27 -1
v -12 28 -1
v -9 27 -1
v -9 28 -1
v -13 0 1
v 13 0 1
v -13 0 -0
v 13 0 -0
v -12 27 -0
v -9 27 -0
v -12 27 -1
v -9 27 -1
v -12 28 -0
v -9 28 -0
v -12 28 -1
v -9 28 -1
v -13 56 1
v 13 56 1
v -13 56 -0
v 13 56 -0

# faces
f 3/1/1 2/1/1 1/1/1
f 4/1/1 2/1/1 3/1/1
f 7/2/1 6/2/1 5/2/1
f 8/2/1 6/2/1 7/2/1
f 9/2/2 10/2/2 11/2/2
f 11/2/2 10/2/2 12/2/2
f 13/1/2 14/1/2 15/1/2
f 15/1/2 14/1/2 16/1/2
f 19/1/3 18/1/3 17/1/3
f 20/1/3 18/1/3 19/1/3
f 21/1/4 22/1/4 23/1/4
f 23/1/4 22/1/4 24/1/4
f 21/1/4 23/1/4 25/1/4
f 24/1/4 22/1/4 26/1/4
f 21/1/4 25/1/4 27/1/4
f 25/1/4 26/1/4 27/1/4
f 26/1/4 22/1/4 28/1/4
f 27/1/4 26/1/4 28/1/4
f 29/2/4 30/2/4 31/2/4
f 31/2/4 30/2/4 32/2/4
f 35/1/5 34/1/5 33/1/5
f 36/1/5 34/1/5 35/1/5
f 39/2/5 38/2/5 37/2/5
f 40/2/5 38/2/5 39/2/5
f 41/2/6 42/2/6 43/2/6
f 43/2/6 42/2/6 44/2/6
f 45/1/6 46/1/6 47/1/6
f 47/1/6 46/1/6 48/1/6
