# MagicaVoxel @ Ephtracy

# material
mtllib roof.mtl
usemtl palette

# normals
vn -1 0 0
vn 1 0 0
vn 0 0 1
vn 0 0 -1
vn 0 -1 0
vn 0 1 0

# texcoords
vt 0.958984 0.5
vt 0.982422 0.5

# verts
v -63 57 63
v -63 57 -63
v -63 58 63
v -63 58 -63
v -62 56 51
v -62 56 47
v -62 56 35
v -62 56 31
v -62 56 18
v -62 56 14
v -62 56 1
v -62 56 -3
v -62 56 -15
v -62 56 -19
v -62 56 -32
v -62 56 -36
v -62 56 -50
v -62 56 -54
v -62 57 51
v -62 57 47
v -62 57 35
v -62 57 31
v -62 57 18
v -62 57 14
v -62 57 1
v -62 57 -3
v -62 57 -15
v -62 57 -19
v -62 57 -32
v -62 57 -36
v -62 57 -50
v -62 57 -54
v 61 56 51
v 61 56 47
v 61 56 35
v 61 56 31
v 61 56 18
v 61 56 14
v 61 56 1
v 61 56 -3
v 61 56 -15
v 61 56 -19
v 61 56 -32
v 61 56 -36
v 61 56 -50
v 61 56 -54
v 61 57 51
v 61 57 47
v 61 57 35
v 61 57 31
v 61 57 18
v 61 57 14
v 61 57 1
v 61 57 -3
v 61 57 -15
v 61 57 -19
v 61 57 -32
v 61 57 -36
v 61 57 -50
v 61 57 -54
v 63 57 63
v 63 57 -63
v 63 58 63
v 63 58 -63
v -63 57 63
v -63 58 63
v 63 57 63
v 63 58 63
v -62 56 51
v -62 57 51
v 61 56 51
v 61 57 51
v -62 56 35
v -62 57 35
v 61 56 35
v 61 57 35
v -62 56 18
v -62 57 18
v 61 56 18
v 61 57 18
v -62 56 1
v -62 57 1
v 61 56 1
v 61 57 1
v -62 56 -15
v -62 57 -15
v 61 56 -15
v 61 57 -15
v -62 56 -32
v -62 57 -32
v 61 56 -32
v 61 57 -32
v -62 56 -50
v -62 57 -50
v 61 56 -50
v 61 57 -50
v -62 56 47
v -62 57 47
v 61 56 47
v 61 57 47
v -62 56 31
v -62 57 31
v 61 56 31
v 61 57 31
v -62 56 14
v -62 57 14
v 61 56 14
v 61 57 14
v -62 56 -3
v -62 57 -3
v 61 56 -3
v 61 57 -3
v -62 56 -19
v -62 57 -19
v 61 56 -19
v 61 57 -19
v -62 56 -36
v -62 57 -36
v 61 56 -36
v 61 57 -36
v -62 56 -54
v -62 57 -54
v 61 56 -54
v 61 57 -54
v -63 57 -63
v -63 58 -63
v 63 57 -63
v 63 58 -63
v -62 56 51
v 61 56 51
v -62 56 47
v 61 56 47
v -62 56 35
v 61 56 35
v -62 56 31
v 61 56 31
v -62 56 18
v 61 56 18
v -62 56 14
v 61 56 14
v -62 56 1
v 61 56 1
v -62 56 -3
v 61 56 -3
v -62 56 -15
v 61 56 -15
v -62 56 -19
v 61 56 -19
v -62 56 -32
v 61 56 -32
v -62 56 -36
v 61 56 -36
v -62 56 -50
v 61 56 -50
v -62 56 -54
v 61 56 -54
v -63 57 63
v 63 57 63
v -62 57 51
v 61 57 51
v -62 57 47
v 61 57 47
v -62 57 35
v 61 57 35
v -62 57 31
v 61 57 31
v -62 57 18
v 61 57 18
v -62 57 14
v 61 57 14
v -62 57 1
v 61 57 1
v -62 57 -3
v 61 57 -3
v -62 57 -15
v 61 57 -15
v -62 57 -19
v 61 57 -19
v -62 57 -32
v 61 57 -32
v -62 57 -36
v 61 57 -36
v -62 57 -50
v 61 57 -50
v -62 57 -54
v 61 57 -54
v -63 57 -63
v 63 57 -63
v -63 58 63
v 63 58 63
v -63 58 -63
v 63 58 -63

# faces
f 3/1/1 2/1/1 1/1/1
f 4/1/1 2/1/1 3/1/1
f 19/2/1 6/2/1 5/2/1
f 20/2/1 6/2/1 19/2/1
f 21/2/1 8/2/1 7/2/1
f 22/2/1 8/2/1 21/2/1
f 23/2/1 10/2/1 9/2/1
f 24/2/1 10/2/1 23/2/1
f 25/2/1 12/2/1 11/2/1
f 26/2/1 12/2/1 25/2/1
f 27/2/1 14/2/1 13/2/1
f 28/2/1 14/2/1 27/2/1
f 29/2/1 16/2/1 15/2/1
f 30/2/1 16/2/1 29/2/1
f 31/2/1 18/2/1 17/2/1
f 32/2/1 18/2/1 31/2/1
f 33/2/2 34/2/2 47/2/2
f 47/2/2 34/2/2 48/2/2
f 35/2/2 36/2/2 49/2/2
f 49/2/2 36/2/2 50/2/2
f 37/2/2 38/2/2 51/2/2
f 51/2/2 38/2/2 52/2/2
f 39/2/2 40/2/2 53/2/2
f 53/2/2 40/2/2 54/2/2
f 41/2/2 42/2/2 55/2/2
f 55/2/2 42/2/2 56/2/2
f 43/2/2 44/2/2 57/2/2
f 57/2/2 44/2/2 58/2/2
f 45/2/2 46/2/2 59/2/2
f 59/2/2 46/2/2 60/2/2
f 61/1/2 62/1/2 63/1/2
f 63/1/2 62/1/2 64/1/2
f 67/1/3 66/1/3 65/1/3
f 68/1/3 66/1/3 67/1/3
f 71/2/3 70/2/3 69/2/3
f 72/2/3 70/2/3 71/2/3
f 75/2/3 74/2/3 73/2/3
f 76/2/3 74/2/3 75/2/3
f 79/2/3 78/2/3 77/2/3
f 80/2/3 78/2/3 79/2/3
f 83/2/3 82/2/3 81/2/3
f 84/2/3 82/2/3 83/2/3
f 87/2/3 86/2/3 85/2/3
f 88/2/3 86/2/3 87/2/3
f 91/2/3 90/2/3 89/2/3
f 92/2/3 90/2/3 91/2/3
f 95/2/3 94/2/3 93/2/3
f 96/2/3 94/2/3 95/2/3
f 97/2/4 98/2/4 99/2/4
f 99/2/4 98/2/4 100/2/4
f 101/2/4 102/2/4 103/2/4
f 103/2/4 102/2/4 104/2/4
f 105/2/4 106/2/4 107/2/4
f 107/2/4 106/2/4 108/2/4
f 109/2/4 110/2/4 111/2/4
f 111/2/4 110/2/4 112/2/4
f 113/2/4 114/2/4 115/2/4
f 115/2/4 114/2/4 116/2/4
f 117/2/4 118/2/4 119/2/4
f 119/2/4 118/2/4 120/2/4
f 121/2/4 122/2/4 123/2/4
f 123/2/4 122/2/4 124/2/4
f 125/1/4 126/1/4 127/1/4
f 127/1/4 126/1/4 128/1/4
f 131/2/5 130/2/5 129/2/5
f 132/2/5 130/2/5 131/2/5
f 135/2/5 134/2/5 133/2/5
f 136/2/5 134/2/5 135/2/5
f 139/2/5 138/2/5 137/2/5
f 140/2/5 138/2/5 139/2/5
f 143/2/5 142/2/5 141/2/5
f 144/2/5 142/2/5 143/2/5
f 147/2/5 146/2/5 145/2/5
f 148/2/5 146/2/5 147/2/5
f 151/2/5 150/2/5 149/2/5
f 152/2/5 150/2/5 151/2/5
f 155/2/5 154/2/5 153/2/5
f 156/2/5 154/2/5 155/2/5
f 159/1/5 158/1/5 157/1/5
f 160/1/5 158/1/5 159/1/5
f 161/1/5 159/1/5 157/1/5
f 162/1/5 158/1/5 160/1/5
f 163/1/5 161/1/5 157/1/5
f 163/1/5 162/1/5 161/1/5
f 164/1/5 158/1/5 162/1/5
f 164/1/5 162/1/5 163/1/5
f 165/1/5 163/1/5 157/1/5
f 166/1/5 158/1/5 164/1/5
f 167/1/5 165/1/5 157/1/5
f 167/1/5 166/1/5 165/1/5
f 168/1/5 158/1/5 166/1/5
f 168/1/5 166/1/5 167/1/5
f 169/1/5 167/1/5 157/1/5
f 170/1/5 158/1/5 168/1/5
f 171/1/5 169/1/5 157/1/5
f 171/1/5 170/1/5 169/1/5
f 172/1/5 158/1/5 170/1/5
f 172/1/5 170/1/5 171/1/5
f 173/1/5 171/1/5 157/1/5
f 174/1/5 158/1/5 172/1/5
f 175/1/5 173/1/5 157/1/5
f 175/1/5 174/1/5 173/1/5
f 176/1/5 158/1/5 174/1/5
f 176/1/5 174/1/5 175/1/5
f 177/1/5 175/1/5 157/1/5
f 178/1/5 158/1/5 176/1/5
f 179/1/5 177/1/5 157/1/5
f 179/1/5 178/1/5 177/1/5
f 180/1/5 158/1/5 178/1/5
f 180/1/5 178/1/5 179/1/5
f 181/1/5 179/1/5 157/1/5
f 182/1/5 158/1/5 180/1/5
f 183/1/5 181/1/5 157/1/5
f 183/1/5 182/1/5 181/1/5
f 184/1/5 158/1/5 182/1/5
f 184/1/5 182/1/5 183/1/5
f 185/1/5 183/1/5 157/1/5
f 186/1/5 158/1/5 184/1/5
f 187/1/5 185/1/5 157/1/5
f 187/1/5 186/1/5 185/1/5
f 188/1/5 158/1/5 186/1/5
f 188/1/5 186/1/5 187/1/5
f 189/1/6 190/1/6 191/1/6
f 191/1/6 190/1/6 192/1/6
